<svg id="Layer_1" xmlns="http://www.w3.org/2000/svg" viewBox="0 0 622.5 534.3">
  <style>
    .st0{fill:#f4a335}.st1{fill:#95c34b}.st2{fill:#ed9236}.st4{fill:#f06454}.st5{fill:#fbf28b}.st9{fill:#f8c991}.st10{fill:#f6a49b}.st11{fill:#e3dd98}.st12{fill:#fce7e5}
  </style>
  <path class="st0" d="M40.9 94.1a185.6 185.6 0 0 1 95.5-81.9c19.5-7.6 39.8-12 60.8-12 1.5 1.5 3.5.9 5.2.9h205.5c1.8 0 3.7.5 5.2-1a171 171 0 0 1 86.1 23.8c54.8 32 86.3 79.7 94.6 142.7 1.2 9 2.1 18.2.4 27.4l-1.9 4.2c-5.3 0-10.6-.8-15.9-.9-20.6-.4-41.3.2-61.9-1.1-6.6-.4-13.3-.5-19.9-.8-19.9-.7-39.8-2.1-59.7-3.3-9.8-.6-19.5-1.2-29.3-2.1-15.5-1.5-31-3.2-46.4-4.9-11.9-1.3-23.7-2.5-35.5-4.3-20.9-3.3-41.9-6.5-62.8-10.4-25.3-4.8-50.4-10.5-75.2-17.2a702 702 0 0 1-63.1-20.3 565.2 565.2 0 0 1-48-20.8c-11.3-5.7-22.3-12.3-33.7-18zm111.6-65c-2.9 5.1-5.9 9.7-6.2 15.4-.3 4.8 2.3 7.6 6.6 7.5 4.3-.1 7.1-3.6 6.1-8.4-1.1-5-2.9-9.8-6.5-14.5zM263.2 3.8c-2.9 5.2-5.9 9.8-6 15.5-.1 5.3 1.8 7.2 6.7 6.9 4-.2 6.7-3.1 5.9-7.5a30 30 0 0 0-6.6-14.9zM113.8 86a38.8 38.8 0 0 0-6.3 14.2c-.5 2.7-.4 5.6 2.1 7.2 2.3 1.6 5.3 1.4 7.7.3 2.9-1.2 3.1-4.2 2.8-6.9-.6-5.2-3.2-9.7-6.3-14.8zm319.9-68a29.7 29.7 0 0 0-6.4 14.9c-.4 2.5 0 5.1 2.6 6.5 2.5 1.3 5.2 1.5 7.6-.2 2.4-1.7 3-4.3 2.5-7.1-1-4.9-3.1-9.3-6.3-14.1zm62.4 18.3c-3.1 5.4-5.9 10-5.9 15.7 0 4.6 2.3 7 6.5 6.9 4.5-.2 6.2-3.3 6-7a28.1 28.1 0 0 0-6.6-15.6zm7.6 51.7a34 34 0 0 0-6.3 14.4c-.4 2.6-.3 5.5 2.5 7a7.2 7.2 0 0 0 7.6-.1c2.5-1.6 3.1-4.3 2.6-7.1-.9-5-3.3-9.5-6.4-14.2zm-180 6.3a28.1 28.1 0 0 0-6.4 14.2c-.5 2.7-.2 5.6 2.4 7.1a7.2 7.2 0 0 0 7.6-.2c2.6-1.7 3.2-4.6 2.5-7.5a38.4 38.4 0 0 0-6.1-13.6zm-21-55.3a39.5 39.5 0 0 0-6.3 14.2c-.5 2.9-.1 5.8 2.8 7.4a7.2 7.2 0 0 0 7.6-.3c2.6-1.7 2.7-4.5 2.2-7.2-.8-5-3.2-9.3-6.3-14.1zm-75 0a40.2 40.2 0 0 0-6 12.6c-.8 3.1-1.2 6.5 1.9 8.6a6.6 6.6 0 0 0 7.9 0c2.9-2.1 3.1-5.3 2.2-8.6a41.2 41.2 0 0 0-6-12.6zm198.2 33a33 33 0 0 0-6.5 14.8c-.6 4.3 1.9 7.2 6 7.4 4.9.2 7-1.8 6.8-6.9-.4-5.6-3.4-10.1-6.3-15.3zM222.1 93.8c-3.1 6-6.3 11-6 17.3.2 3.4 1.8 5.1 5.2 5.3 5.5.3 8-2.6 7.1-8.5-.7-4.9-2.9-9.1-6.3-14.1zm139.1-76.1c-3.4 6-6.7 10.9-6.1 17.3.3 3.7 2.3 5.2 5.8 5.2 3.7 0 6-1.1 6.3-5.2.5-6.3-2.6-11.3-6-17.3zM577.3 423.3c15.1 6.5 20.6 18.9 15.3 34.9-5.2 15.6-13 29.8-24.2 42H45a111.8 111.8 0 0 1-25.3-45.8c-3.9-13.8 2.6-24.7 17.4-31.4l.2.1 69.9.1 1.1 3.8a88.7 88.7 0 0 0 14.1 34.9c6.9 9.8 14.6 11.5 24.8 5 9.1-5.8 16.6-13.4 23.7-21.3a187 187 0 0 1 19.6-19.2c5.7-4.6 11.8-5.7 18.5-2 5.1 2.7 9.4 6.3 13.4 10.3 6.1 6.1 12.3 12.2 19.3 17.3 9.5 6.9 17.9 5.4 25.1-3.7 6.2-7.9 9.9-17.3 16.1-25.2h37a47 47 0 0 0 24.8 25.4c11.3 4.6 19.6 2.6 26.4-7.4 3.9-5.8 7.2-11.9 10.8-17.9h64.2l5.5 5c7.3 6.6 14.5 13.3 22.7 18.8 12.1 8.2 23.4 6.9 33.9-3.1 6.4-6.1 10.9-13.4 15.5-20.7 18-.1 35.8 0 53.6.1z"/>
  <path class="st1" d="M37.3 423l-.2-.1c-17.2-1.1-28.1-10.5-34-26.2a37.6 37.6 0 0 1-.8-25.4c.9-2.7 1.8-5.6 3.9-7.4C17 355 23.1 342.8 30 331.1c8.4 20.9 24.9 33.8 44 43.9 33 17.4 68.8 24.7 105.6 26.9 32 1.9 63.9.1 95.3-7.5 27.3-6.6 53.3-16 75.4-33.9 2.3-1.8 3.8-1.2 5.7.1 7 5.1 14.7 9.3 22.7 12.5 44.6 17.9 90.6 20.1 137.4 11.6 22-4 42.9-11 61.4-24 13.1-9.2 23.2-20.6 24.2-37.7a94.5 94.5 0 0 1 19 34.2c5.6 19.3-1.8 33.5-20.6 40.3a67.9 67.9 0 0 1-11.6 2.9c-5.8.7-11.5 1-17.3.7-9.4-.6-18.8-1.2-28.2-2-4.6-.4-7.6 1.4-9.5 5.5-3 6.2-6.3 12.4-9.4 18.6-4.7 7.3-9.2 14.6-15.5 20.7-10.5 10-21.8 11.3-33.9 3.1-8.2-5.5-15.4-12.2-22.7-18.8l-5.5-5a135.6 135.6 0 0 0-21.4-20.1 22.7 22.7 0 0 0-28.7.5 48.4 48.4 0 0 0-14.1 19.6c-3.6 6-6.9 12.2-10.8 17.9-6.9 10.1-15.2 12-26.4 7.4a47 47 0 0 1-24.8-25.4c-11.4-16.8-26-19.8-36.8-.4l-.2.5c-6.2 7.9-9.9 17.3-16.1 25.2-7.2 9.2-15.6 10.6-25.1 3.7-7-5.1-13.2-11.2-19.3-17.3-4-4-8.4-7.6-13.4-10.3-6.8-3.7-12.8-2.6-18.5 2a169.4 169.4 0 0 0-19.6 19.2 120 120 0 0 1-23.7 21.3c-10.2 6.5-17.9 4.8-24.8-5a89.3 89.3 0 0 1-14.1-34.9l-1.1-3.8c-.6-2.6-1-5.2-1.9-7.7a19.8 19.8 0 0 0-25.1-12.8 47.9 47.9 0 0 0-10.9 4.7C59 413.5 49 420 37.3 423z"/>
  <path class="st2" d="M40.9 94.1c11.4 5.8 22.4 12.3 33.9 18a534.8 534.8 0 0 0 48 20.8 702 702 0 0 0 63.1 20.3c24.8 6.7 49.9 12.4 75.2 17.2 20.8 4 41.8 7.1 62.8 10.4 11.8 1.9 23.7 3 35.5 4.3 15.5 1.7 30.9 3.4 46.4 4.9 9.7.9 19.5 1.5 29.3 2.1 19.9 1.2 39.7 2.6 59.7 3.3 6.6.2 13.3.3 19.9.8 20.6 1.3 41.3.7 61.9 1.1 5.3.1 10.6.9 15.9.9A28.3 28.3 0 0 1 565 216H46.7c-8 0-15-2.4-21.2-7.4-4.4-3.6-6.3-8.9-9-13.6A174.2 174.2 0 0 1 40.9 94.1z"/>
  <path d="M27.9 315c-6.7-5.3-11.7-11.7-11.7-20.8 2.1-8.5.5-17.2.9-25.8.1-2 .8-4.3-.9-6.1l.3-4.7 6.7 1c3.7 10.9 6.4 12.7 17.2 11.8 6.4-.5 12.2-3.2 18-5.7l.9.3 145.6 25.1c6.9 1.2 13.6 3.5 20.7 2.8l102.9-9.6 57.6-5.6 6 .8 67.4 21.4c1.7.5 2.8 0 4.1-.8l25.5-16.5 2-1.3 1.2-.9-.1.1 1.2-.8h.1l1.8-1.2-.2-.2.1.2 1.9-1.2h-.1l1.3-.8v.1l3-1.8.2-.1 16.5-9.5 18.8-1.5 57.5-5.2c.9 14.2 1.3 28.4-.5 42.6-2.1 3.7-4 7.6-6.9 10.8a33.4 33.4 0 0 1-22.7 7.4c-55.3-.2-110.5-.1-165.8-.1l-24.5.2-15.8-.1-3.5-.1H46.9l-4 .2a39.2 39.2 0 0 1-15-4.4z" fill="#6e4438"/>
  <path class="st1" d="M58.4 264.5c-5.8 2.5-11.5 5.2-18 5.7-10.8.9-13.6-.9-17.2-11.8-1.1-10.1-3.1-19.7-11.9-26.3C.5 221.3.2 213 10.5 200.9c1.8-2.1 4-3.9 6-5.9 2.7 4.8 4.6 10 9 13.6a32 32 0 0 0 21.2 7.4H565c12.8 0 23.3-6.9 27.5-17.8l1.9-4.2c7.5 6.3 14.3 13.4 19.7 21.6 2.9 4.3 5.2 8.9 5.4 14.2.3 7.5-3.3 10.7-10.7 9.8-6.5-.7-12.4-3.5-18.6-5.3-8.2-4.9-15.3-3.2-21.9 3.4-3.6 3.6-7.8 6.7-11.8 9.9-5.4 4.2-11.4 6-18.2 3.6l-3.1-1.8c-6.2-4.5-12.3-9.2-18.7-13.3-12.6-8-23.8-6.6-34.4 3.8-3.5 3.4-6.7 7-10.2 10.2-7.4 6.8-13.9 7.4-22 1.4-4.3-3.1-8.2-6.8-12.1-10.5-12.7-11.8-23.4-13.1-38.4-4.2l-16.6 10.1a19.6 19.6 0 0 1-22.1-.5l-12.2-7.8a89.2 89.2 0 0 0-11.4-6.2c-8.9-4.1-16.4-2.3-23 4.7l-10.8 11-3 2c-12 6-22.5 3.5-32-5.4-3.7-3.6-7.6-7-11.9-9.8-8.7-5.7-17.7-5.1-25.9 1.3-5.6 4.4-9.3 10.3-13.8 15.7-9.6 11.6-20.1 12.3-30.6 1.7-4-4-7.4-8.6-11.4-12.6-6.9-7-12.8-6.9-19.8.1-1.8 1.7-3.4 3.7-5 5.6-3.7 4.3-7.1 8.8-11.3 12.7-8.3 7.7-17.1 7-24-2-3.3-4.4-6.2-9.1-10.3-12.8-8.4-7.5-18.4-7.6-26.2.4-6.4 6.6-12.4 13.7-19.7 19.5z"/>
  <path class="st2" d="M44.9 500.2h523.4a93 93 0 0 1-65.2 33.9c-1.6-1.4-3.5-.9-5.3-.9H116.4c-1.8 0-3.7-.5-5.2.9-21.7-.9-40-9.8-56.3-23.6a57.4 57.4 0 0 1-10-10.3z"/>
  <path class="st4" d="M358.4 319.2l15.8.1c.5 2.8-1.4 5.5-.4 8.8h71.9c1.6 0 3.5-.6 4.3 1.5.7 2-.8 3.1-1.9 4.3L423 359c-1.5 1.5-2.9 2.5-5.2 1.9a111.2 111.2 0 0 1-37.1-15.5c-3.7-2.6-6.9-6-10.9-9.4-2.2 5.7-6.2 9.7-9 14.8 1 .9 1.7 1.6 2.5 2.1 3.4 2.2 6.6 4.5 10.2 6.3 26.7 14 55.7 18.4 85.3 19.8 19.5.9 38.9-1 58-4.9 21.7-4.5 42.6-11.2 59.7-26.2 10.4-9.1 16.6-21.7 10.6-36.1 2.9-3.2 4.8-7 6.9-10.8a37 37 0 0 1 7.6 22c-1 17.1-11.1 28.4-24.2 37.7-18.5 13-39.4 20-61.4 24-46.8 8.5-92.8 6.3-137.4-11.6-8.1-3.2-15.7-7.4-22.7-12.5-1.9-1.4-3.4-2-5.7-.1-22.2 17.9-48.2 27.3-75.4 33.9a321.6 321.6 0 0 1-95.3 7.5c-36.8-2.2-72.6-9.5-105.6-26.9-19.1-10.1-35.6-22.9-44-43.9-1.3-5.3-2.6-10.6-2-16.2 4.8 2.6 9.9 4.1 15.3 4.3.9 8 3.9 15 8.7 21.4a90.2 90.2 0 0 0 35.2 26.3c31.3 14.8 64.8 20.4 99.1 22.1 26.1 1.3 52.2-.5 77.8-5.9 28.4-5.9 55.8-14.5 78.2-34.1 9-7.8 15.7-17.3 16.2-29.8zm52.5 20.8c4.6-.2 7.7-1.3 11.6-4.5a22 22 0 0 0-11.6 4.5zm.4-5.7c-4.2 0-7.2 1.1-10.4 3.9 4.2-.3 7.3-1.2 10.4-3.9zm7.4 8.3c-3.2.2-6.5.6-9.5 3.5 4 .3 6.7-1.3 9.5-3.5zM523.9 423.1l9.4-18.6c2-4.1 5-5.9 9.5-5.5 9.4.8 18.8 1.5 28.2 2 5.8.4 11.6 0 17.3-.7 1.6 4.3 1.3 8.8.8 13.2-.7 5.6-4.9 8.8-11.9 9.7l-53.3-.1z"/>
  <path class="st5" d="M538.2 251.2c6.8 2.4 12.8.6 18.2-3.6 4-3.2 8.2-6.3 11.8-9.9 6.6-6.6 13.7-8.3 21.9-3.4l13.7 22.3c-3.1 2-6.3 1.3-9.3 1.9l-57.5 5.2-18.8 1.5c.7-1.5 2.2-1.9 3.4-2.7 5.5-3.9 11.8-6.5 16.6-11.3z"/>
  <path d="M111.2 534.1c1.5-1.5 3.5-.9 5.2-.9h381.4c1.8 0 3.7-.5 5.3.9l-6 .2H116.6l-5.4-.2z" fill="#ef8013"/>
  <path class="st5" d="M11.3 232.1c8.8 6.6 10.8 16.2 11.9 26.3l-6.7-1A3910 3910 0 0 1 0 254.5l11.3-22.4z"/>
  <path d="M413.2.2c-1.5 1.5-3.4 1-5.2 1H202.5c-1.8 0-3.7.5-5.2-.9l6-.2h204.5c1.7-.1 3.6 0 5.4.1z" fill="#f69514"/>
  <path d="M16.2 262.2c1.7 1.8 1 4.1.9 6.1-.4 8.6 1.2 17.3-.9 25.8v-31.9z" fill="#592617"/>
  <path class="st9" d="M152.5 29.1c3.5 4.7 5.4 9.5 6.4 14.5 1 4.8-1.8 8.3-6.1 8.4-4.3.1-6.8-2.7-6.6-7.5.4-5.7 3.4-10.3 6.3-15.4zM263.2 3.8c3.9 4.8 5.8 9.7 6.7 14.9.7 4.4-1.9 7.3-5.9 7.5-5 .3-6.8-1.6-6.7-6.9 0-5.7 3-10.2 5.9-15.5zM113.8 86c3.1 5.1 5.7 9.6 6.3 14.8.3 2.7.1 5.7-2.8 6.9a8.1 8.1 0 0 1-7.7-.3c-2.5-1.7-2.7-4.5-2.1-7.2 1-5 3-9.4 6.3-14.2zM433.7 18c3.2 4.8 5.3 9.2 6.2 14.1.5 2.8-.1 5.4-2.5 7.1-2.3 1.6-5.1 1.4-7.6.2-2.6-1.3-3-4-2.6-6.5.8-5.2 2.7-10.1 6.5-14.9zM496.1 36.3c3.9 5.2 6.4 10 6.7 15.5.2 3.7-1.6 6.9-6 7-4.3.2-6.5-2.3-6.5-6.9-.1-5.6 2.7-10.2 5.8-15.6zM503.7 88a38 38 0 0 1 6.4 14.3c.5 2.7-.1 5.5-2.6 7.1a7.4 7.4 0 0 1-7.6.1c-2.8-1.5-2.9-4.4-2.5-7 .8-5.2 3-9.8 6.3-14.5zM323.7 94.3c3.2 4.5 4.9 8.9 6.1 13.6.7 2.9.1 5.8-2.5 7.5a7.2 7.2 0 0 1-7.6.2c-2.7-1.4-2.9-4.4-2.4-7.1a29 29 0 0 1 6.4-14.2zM302.7 39c3.1 4.8 5.5 9.2 6.3 14.1.5 2.6.4 5.5-2.2 7.2a7.4 7.4 0 0 1-7.6.3c-2.9-1.5-3.3-4.5-2.8-7.4.9-5 3.2-9.4 6.3-14.2zM227.7 39c2.9 4.4 4.9 8.4 6 12.7.9 3.2.7 6.5-2.2 8.6a6.6 6.6 0 0 1-7.9 0c-3.1-2.1-2.7-5.5-1.9-8.6 1.1-4.4 3.1-8.4 6-12.7zM425.9 72c2.9 5.1 5.9 9.7 6.2 15.3.3 5.1-1.9 7.1-6.8 6.9-4-.2-6.6-3.1-6-7.4a35 35 0 0 1 6.6-14.8zM222.1 93.8a36 36 0 0 1 6.4 14.1c1 5.9-1.5 8.8-7.1 8.5-3.5-.2-5.1-1.9-5.2-5.3-.3-6.4 2.8-11.4 5.9-17.3zM361.2 17.7c3.4 6 6.5 11 6.1 17.3-.3 4.1-2.6 5.2-6.3 5.2-3.6 0-5.5-1.5-5.8-5.2-.7-6.4 2.6-11.3 6-17.3z"/>
  <path class="st4" d="M382 423.1a49.3 49.3 0 0 1 14.1-19.6c9.2-7 19.3-7.1 28.7-.5 8 5.7 14.8 12.8 21.4 20.1H382zM37.3 423c11.7-3 21.7-9.5 32-15.6 3.5-2 7.1-3.7 10.9-4.7a19.8 19.8 0 0 1 25.1 12.8c.9 2.5 1.3 5.1 1.9 7.7l-69.9-.2zM282.9 423.1l.2-.5c10.9-19.4 25.5-16.3 36.8.4l-37 .1z"/>
  <path class="st5" d="M58.4 264.5c7.3-5.8 13.3-12.9 19.8-19.5 7.8-8 17.8-7.9 26.2-.4 4.1 3.7 7 8.4 10.3 12.8 6.9 9 15.7 9.7 24 2 4.2-3.9 7.6-8.4 11.3-12.7 1.6-1.9 3.2-3.8 5-5.6 7-6.9 12.9-7 19.8-.1 4 4 7.4 8.5 11.4 12.6 10.4 10.6 21 10 30.6-1.7 4.4-5.4 8.2-11.3 13.8-15.7 8.2-6.5 17.2-7 25.9-1.3 4.3 2.8 8.2 6.3 11.9 9.8 9.4 8.9 20 11.4 32 5.4 17.8 5.6 35.6 11.3 53.5 16.6 6.8 2 13.2 5.3 20.5 5.4 1.3 2.6 3.8 1.9 6 2 1.6 1.9 3.8 2.1 6 2v1.4l-57.6 5.6-102.9 9.6c-7 .6-13.8-1.7-20.7-2.8L59.6 264.8c-.6 0-.9-.2-1.2-.3z"/>
  <path class="st10" d="M358.4 319.2c-.5 12.6-7.2 22-16.1 29.8-22.4 19.6-49.7 28.2-78.2 34.1a312.8 312.8 0 0 1-77.8 5.9c-34.2-1.7-67.8-7.3-99.1-22.1A91.2 91.2 0 0 1 52 340.6a41.2 41.2 0 0 1-8.7-21.4l4-.2H355l3.4.2zm-285.5 4.6a33 33 0 0 0 12 18.2c15.6 12.8 34.1 19.1 53.3 24 3 .8 5-.4 7.1-2.5 10.5-10.7 21.2-21.2 31.8-31.9 1.7-1.7 4.1-3.1 2.7-6.3-1.3-3-3.8-2.1-6-2.1h-96c-1.7 0-3.4-.4-4.9.6zm256.4-.2c-1.5-.2-2.3-.4-3.1-.4h-99.4c-1.7 0-3.4-.2-4.2 1.8-.9 2.2.6 3.4 1.9 4.7 9.1 9.1 18.8 17.6 27 27.4 6.8 8 13.4 9.7 23.2 6.2 17.5-6.4 34.8-12.6 47.8-26.8 3.1-3.5 6.1-7.3 6.8-12.9zm-170.5 46.1c10.6 2.2 21.5 2.5 32.4 3.3 2.9.2 3.1-1.6 3.1-3.8v-26.5c0-2 .3-3.9-2.4-4.8-2.4-.9-3.4.6-4.6 1.8l-26.8 26.8c-.8.8-2 1.4-1.7 3.2zm84.3 0l-30.3-30.5c-1-1.1-2.3-1.3-3.7-.7-1.7.7-1.7 2.3-1.7 3.8 0 8.8.2 17.7-.1 26.5-.1 3.7 1.4 4.7 4.7 4.3 10-1.2 20.2-1.1 31.1-3.4z"/>
  <path class="st5" d="M303.2 248.2l10.8-11c6.6-7 14.1-8.8 23-4.7 4 1.8 7.7 3.9 11.4 6.2l12.2 7.8a19.8 19.8 0 0 0 22.1.5l16.6-10.1c15-8.9 25.7-7.6 38.4 4.2 3.9 3.6 7.8 7.3 12.1 10.5 8.1 5.9 14.6 5.4 22-1.4 3.5-3.3 6.8-6.9 10.2-10.2 10.6-10.4 21.8-11.8 34.4-3.8 6.5 4.1 12.5 8.8 18.7 13.3a14.9 14.9 0 0 1-4.7 4.3l-25.5 17.1c-1.5 1-3.4 1.5-3.2 3.9l-.2.1c-1.8-.7-2.8-.1-3 1.8v-.1l-1.3.8h.1c-.9-.1-1.7.2-1.9 1.2l-.1-.2.2.2c-1-.2-1.8-.1-1.8 1.2h-.1c-.7-.1-1 .2-1.2.8l.1-.1-1.2.9c-.9 0-1.6.3-2 1.3l-25.5 16.5c-1.3.8-2.4 1.4-4.1.8l-67.4-21.4c-1.5-2.2-3.7-2.2-6-2.2-1.6-1.9-3.8-2.1-6-2-1.6-1.9-3.8-2.1-6-2-1.4-1.4-3.3-1.6-5-2.1-22.1-7.6-44.1-14.8-66.1-22.1z"/>
  <path class="st10" d="M587.1 311.7c6 14.4-.2 27-10.6 36.1-17.1 15-38 21.7-59.7 26.2-19.1 4-38.5 5.8-58 4.9-29.6-1.4-58.6-5.8-85.3-19.8-3.5-1.8-6.8-4.2-10.2-6.3-.8-.5-1.5-1.2-2.5-2.1 2.8-5.1 6.8-9.2 9-14.8 3.9 3.4 7.1 6.8 10.9 9.4 11.2 8 24 12.1 37.1 15.5 2.3.6 3.8-.4 5.2-1.9l25.1-25.1c1.2-1.2 2.6-2.3 1.9-4.3-.8-2.1-2.7-1.5-4.3-1.5h-71.9c-1-3.4.8-6 .4-8.8l24.5-.2c55.3 0 110.5-.1 165.8.1 8.5 0 16.1-1.8 22.6-7.4zm-20.7 17c-1.2-.3-1.7-.6-2.1-.6L487 328c-1.3 0-2.9-.3-3.4 1.4-.5 1.5.8 2.4 1.7 3.3l26.4 26.5c1.2 1.2 2.4 2.1 4.4 1.6 13.5-3.3 26.5-7.8 37.8-16.2a30 30 0 0 0 12.5-15.9zM433 363.8c8.8 1.2 16.5 2.3 24.3 2.4 2.9 0 4.2-.8 4.1-3.9-.2-6.3 0-12.6-.1-19 0-1.4.4-3.1-1.4-3.9-1.7-.7-2.8.3-3.9 1.4l-23 23zm66.6 0a4767 4767 0 0 0-23.4-23.2c-.8-.8-1.7-1.7-3.1-1-1.3.7-1 2-1 3.1 0 6.5.1 13-.1 19.5-.1 3 1 4.1 4 4 7.6-.2 15-1.1 23.6-2.4z"/>
  <path class="st11" d="M501.7 274.7c-.2-2.4 1.8-2.9 3.2-3.9l25.5-17.1c1.8-1.2 3.6-2.4 4.7-4.3l3.1 1.8c-4.8 4.8-11.2 7.4-16.6 11.3-1.2.8-2.7 1.2-3.4 2.7l-16.5 9.5zM386.2 276.2c2.3 0 4.5 0 6 2.2l-6-.8v-1.4zM498.6 276.6c.2-1.9 1.2-2.6 3-1.8l-3 1.8zM489.3 282.5c.3-.9 1-1.3 2-1.3l-2 1.3zM493.7 279.7c0-1.3.8-1.4 1.8-1.2l-1.8 1.2z"/>
  <path class="st11" d="M495.4 278.5c.2-1.1 1-1.3 1.9-1.2l-1.9 1.2zM491.2 281.2l1.2-.9-1.2.9zM492.4 280.4c.2-.6.6-.9 1.2-.8l-1.2.8zM497.3 277.3l1.3-.8-1.3.8zM303.2 248.2l66.1 21.9c1.7.6 3.6.8 5 2.1-7.3-.1-13.8-3.4-20.5-5.4-17.9-5.3-35.7-11-53.5-16.6l2.9-2z"/>
  <path class="st12" d="M410.9 340a22 22 0 0 1 11.6-4.5c-3.8 3.2-7 4.3-11.6 4.5zM411.3 334.3a15.1 15.1 0 0 1-10.4 3.9c3.2-2.8 6.2-3.9 10.4-3.9zM418.7 342.6c-2.7 2.2-5.5 3.8-9.5 3.5 3-2.9 6.2-3.3 9.5-3.5z"/>
  <path class="st11" d="M374.2 272.2c2.3-.1 4.4.1 6 2-2.2-.2-4.6.6-6-2zM380.2 274.2c2.2-.1 4.4.1 6 2-2.2 0-4.4-.1-6-2z"/>
  <path class="st4" d="M72.9 323.8c1.5-.9 3.2-.5 4.8-.5h96c2.2 0 4.7-.9 6 2.1 1.4 3.2-1 4.6-2.7 6.3a9579.1 9579.1 0 0 0-31.8 31.9c-2 2.1-4.1 3.2-7.1 2.5-19.1-4.9-37.6-11.2-53.3-24a34.3 34.3 0 0 1-11.9-18.3zm56.3 15.4c6-.5 10-1.9 14.9-5.4-6.1.2-10.1 1.7-14.9 5.4zm1-7.5c-7.2.4-10.8 1.9-13 5.3 4.5-.7 8.6-1.8 13-5.3zm-2.5 15.1c4.6 0 8.6-1.2 12.8-4.7a18 18 0 0 0-12.8 4.7zM329.3 323.6c-.7 5.6-3.7 9.3-6.9 12.9-12.9 14.2-30.3 20.4-47.8 26.8-9.8 3.6-16.4 1.9-23.2-6.2-8.2-9.8-17.9-18.3-27-27.4-1.3-1.3-2.8-2.5-1.9-4.7.8-2 2.6-1.8 4.2-1.8h99.4c.9 0 1.7.2 3.2.4zm-47.5 13.6c-4.3-4.2-8.6-5.7-13.2-5 3.7 2.9 7.8 4.1 13.2 5zm-26.7-3.3c4.7 3.8 8.7 5.2 13.1 4.4-4.1-2.6-8-4.5-13.1-4.4zm15.9 13.3c-3.9-3.8-8.6-5.4-12.7-4.3 3.9 2.4 7.8 4.3 12.7 4.3zM158.8 369.7c-.3-1.8.9-2.4 1.7-3.1l26.8-26.8c1.3-1.3 2.3-2.7 4.6-1.8 2.6 1 2.4 2.9 2.4 4.8v26.5c0 2.2-.2 4.1-3.1 3.8-10.9-.9-21.8-1.2-32.4-3.4zm18.3-3.9c2.5-3.7 4.5-7.5 3.9-12.9-3.3 4.1-4 8.4-3.9 12.9zm11.9-11.4c-3 3.5-4.2 7.6-3.8 12.2 2.8-3.6 4.2-7.6 3.8-12.2zM243.1 369.7c-10.9 2.2-21 2.2-31.1 3.3-3.3.4-4.8-.6-4.7-4.3.2-8.8.1-17.7.1-26.5 0-1.5 0-3.1 1.7-3.8 1.4-.6 2.6-.3 3.7.7l30.3 30.6zm-18.8-4c0-4.5-.6-8.8-4.1-12.9a18 18 0 0 0 4.1 12.9zm-8.2.9c.2-4.4-.6-8.6-4-13.2-.3 5.7 1.4 9.6 4 13.2zM566.4 328.7c-2.1 7.4-7.2 12-12.6 16a104.2 104.2 0 0 1-37.8 16.2c-2 .5-3.1-.4-4.4-1.6l-26.4-26.5c-.9-.9-2.2-1.8-1.7-3.3.5-1.6 2.1-1.4 3.4-1.4l77.3.1c.5-.1 1 .2 2.2.5zm-46.4 5.9c2.5 2.1 5.3 3.6 10.1 3.5-3.7-2.4-6.5-3.7-10.1-3.5zm-1.1 5.4c-3.6-3.3-5.5-4-9.5-3.2 2.9 1.9 5.9 3 9.5 3.2zm-7.1 2.6c2.5 2.1 5.3 3.7 9.4 3.5-2.7-2.8-5.9-3.3-9.4-3.5zM433 363.8l23-23c1.1-1.1 2.2-2.1 3.9-1.4 1.8.8 1.4 2.5 1.4 3.9 0 6.3-.1 12.6.1 19 .1 3.1-1.2 4-4.1 3.9-7.8-.1-15.5-1.2-24.3-2.4zm21.4-2.2c2.6-3.3 3.2-6.4 3.4-11.1-2.6 3.9-3.8 6.8-3.4 11.1zm-3.2-11.2a15.5 15.5 0 0 0-3 10.1 14 14 0 0 0 3-10.1zM499.6 363.8c-8.6 1.3-16 2.3-23.5 2.4-3.1.1-4.1-1-4-4 .2-6.5 0-13 .1-19.5 0-1.1-.3-2.4 1-3.1 1.3-.7 2.2.1 3.1 1l23.3 23.2zm-17.8-12.3a16 16 0 0 0 3.4 10.3c-.1-4.8-1.1-7.8-3.4-10.3zm-6.4-.3c-.4 4.2.7 7.1 3.4 11-.2-4.7-.9-7.8-3.4-11z"/>
  <path class="st12" d="M129.2 339.2c4.8-3.7 8.8-5.2 14.9-5.4a27.6 27.6 0 0 1-14.9 5.4zM130.2 331.7a25.7 25.7 0 0 1-13 5.3c2.3-3.4 5.9-4.9 13-5.3zM127.7 346.8c3.3-3 7.2-4.7 12.8-4.7a19.2 19.2 0 0 1-12.8 4.7zM281.8 337.2c-5.4-.9-9.5-2-13.2-5 4.6-.7 8.9.8 13.2 5zM255.1 333.9c5.2-.1 9.1 1.8 13.1 4.4-4.4.8-8.4-.6-13.1-4.4zM271 347.2c-4.9 0-8.8-1.9-12.7-4.3 4.1-1.1 8.8.5 12.7 4.3zM177.1 365.8c-.1-4.5.5-8.8 3.9-12.9.6 5.4-1.4 9.2-3.9 12.9zM189 354.4c.3 4.6-1 8.6-3.8 12.2-.3-4.6.9-8.7 3.8-12.2zM224.3 365.7a18 18 0 0 1-4.1-12.9c3.5 4.1 4.1 8.4 4.1 12.9zM216.1 366.6a19.3 19.3 0 0 1-4-13.2c3.4 4.6 4.2 8.8 4 13.2zM520 334.6c3.6-.2 6.4 1.1 10.1 3.5-4.8.1-7.7-1.5-10.1-3.5zM518.9 340a19 19 0 0 1-9.5-3.2c4-.7 5.9-.1 9.5 3.2zM511.8 342.6c3.5.2 6.6.7 9.4 3.5-4.1.2-6.9-1.4-9.4-3.5zM454.4 361.6c-.4-4.3.8-7.2 3.4-11.1-.2 4.6-.8 7.7-3.4 11.1zM451.2 350.4c.3 4.6-.9 7.4-3 10.1-.2-3.2.5-6.2 3-10.1zM481.8 351.5c2.3 2.5 3.2 5.5 3.4 10.3-2.8-3.8-3.2-7-3.4-10.3zM475.4 351.2c2.5 3.3 3.2 6.4 3.4 11a15.5 15.5 0 0 1-3.4-11z"/>
</svg>